<?xml version="1.0" encoding="UTF-8"?>
<svg width="314px" height="228px" viewBox="0 0 314 228" version="1.1" xmlns="http://www.w3.org/2000/svg" xmlns:xlink="http://www.w3.org/1999/xlink">
    <!-- Generator: Sketch 63.1 (92452) - https://sketch.com -->
    <title>编组 2</title>
    <desc>Created with Sketch.</desc>
    <defs>
        <linearGradient x1="85.260087%" y1="9.52104347%" x2="20.8086993%" y2="76.0315936%" id="linearGradient-1">
            <stop stop-color="#000000" offset="0%"></stop>
            <stop stop-color="#131528" offset="100%"></stop>
        </linearGradient>
        <linearGradient x1="100%" y1="75.4557292%" x2="0%" y2="19.7482639%" id="linearGradient-2">
            <stop stop-color="#1C204F" offset="0%"></stop>
            <stop stop-color="#000000" offset="100%"></stop>
        </linearGradient>
        <linearGradient x1="32.3165761%" y1="4.90149457%" x2="54.4836957%" y2="100%" id="linearGradient-3">
            <stop stop-color="#000000" offset="0%"></stop>
            <stop stop-color="#0F1120" offset="100%"></stop>
        </linearGradient>
        <path d="M11.3664,4.8478 C11.5104,4.9136 11.6676,4.9458 11.8344,4.9402 L11.8344,4.9402 L1.3632,0.2222 C1.1952,0.225 1.038,0.1914 0.8928,0.127 L0.8928,0.127" id="path-4"></path>
        <path d="M0.03135,0.333 L10.58981,3.704 C10.67451,3.702 10.75316,3.715 10.82576,3.738 L10.82576,3.738 L0.26609,0.367 C0.19591,0.345 0.12089,0.333 0.03982,0.333 L0.03982,0.333 C0.0374,0.333 0.03377,0.333 0.03135,0.333" id="path-6"></path>
        <path d="M11.376,3.489 C11.5188,3.535 11.6748,3.558 11.8392,3.556 L11.8392,3.556 L1.3668,0.184 C1.2012,0.188 1.0464,0.164 0.9036,0.118 L0.9036,0.118" id="path-8"></path>
        <linearGradient x1="20.5187578%" y1="27.3859989%" x2="46.1399812%" y2="85.6592966%" id="linearGradient-10">
            <stop stop-color="#747BDD" offset="0%"></stop>
            <stop stop-color="#424784" offset="100%"></stop>
        </linearGradient>
        <linearGradient x1="-6.28218533%" y1="29.6840835%" x2="42.6308975%" y2="82.0355204%" id="linearGradient-11">
            <stop stop-color="#424784" offset="0%"></stop>
            <stop stop-color="#141634" offset="100%"></stop>
        </linearGradient>
        <linearGradient x1="-3.70107446%" y1="27.3859989%" x2="42.9688458%" y2="85.6592966%" id="linearGradient-12">
            <stop stop-color="#747BDD" offset="0%"></stop>
            <stop stop-color="#424784" offset="100%"></stop>
        </linearGradient>
        <path d="M0.138,8.80328571 C0.126,8.83414286 0.116,8.86757143 0.107,8.90228571 L0.107,8.90228571 L3.283,0.240428571 C3.291,0.208285714 3.302,0.176142857 3.314,0.142714286 L3.314,0.142714286" id="path-13"></path>
        <path d="M3.35,1.15625 L0.175,9.57625 C0.229,9.43375 0.342,9.3225 0.503,9.285 L0.503,9.285 L3.678,0.865 C3.518,0.905 3.404,1.0125 3.35,1.15625" id="path-15"></path>
        <path d="M3.35,1.15625 L0.175,9.57625 C0.229,9.43375 0.342,9.3225 0.503,9.285 L0.503,9.285 L3.678,0.865 C3.518,0.905 3.404,1.0125 3.35,1.15625" id="path-17"></path>
        <path d="M0.455,8.4775 C0.529,8.65625 0.533,8.8325 0.479,8.9725 L0.479,8.9725 L3.655,0.55375 C3.708,0.4125 3.705,0.2375 3.63,0.0575 L3.63,0.0575" id="path-19"></path>
        <linearGradient x1="-6.28218533%" y1="28.6964466%" x2="42.6308975%" y2="83.5928934%" id="linearGradient-21">
            <stop stop-color="#747BDD" offset="0%"></stop>
            <stop stop-color="#424784" offset="100%"></stop>
        </linearGradient>
    </defs>
    <g id="web" stroke="none" stroke-width="1" fill="none" fill-rule="evenodd">
        <g id="404" transform="translate(-803.000000, -280.000000)">
            <g id="编组-2" transform="translate(803.000000, 280.000000)">
                <g id="编组" opacity="0.801781064">
                    <ellipse id="椭圆形" fill="url(#linearGradient-1)" cx="58.5" cy="171" rx="58.5" ry="57"></ellipse>
                    <circle id="椭圆形备份-2" fill="url(#linearGradient-2)" cx="33.5" cy="20.5" r="20.5"></circle>
                    <circle id="椭圆形备份-3" fill="url(#linearGradient-2)" cx="294.5" cy="215.5" r="9.5"></circle>
                    <circle id="椭圆形备份" fill="url(#linearGradient-3)" cx="219" cy="101" r="95"></circle>
                </g>
                <g id="编组" transform="translate(47.000000, 96.000000)">
                    <g transform="translate(0.000000, 77.000000)">
                        <mask id="mask-5" fill="white">
                            <use xlink:href="#path-4"></use>
                        </mask>
                        <g id="Clip-2"></g>
                        <path d="M1.36284,0.22178 L11.83524,4.94118 C11.66724,4.94538 11.51004,4.91318 11.36604,4.84738 L0.89364,0.12798 C1.03764,0.19238 1.19484,0.22458 1.36284,0.22178" id="Fill-1" fill="#7F8082" mask="url(#mask-5)"></path>
                    </g>
                    <g transform="translate(1.000000, 30.000000)">
                        <path d="M52.6630186,4.7359814 L41.9064837,0.579795349 C41.8251349,0.548981395 41.7363907,0.531725581 41.6451814,0.533958066 C41.5194605,0.536655814 41.3900419,0.577330233 41.2618558,0.650051163 C41.2544605,0.653748837 41.2470651,0.652516279 41.2384372,0.656213953 C41.2125535,0.673469767 41.1854372,0.69195814 41.1595535,0.710446512 C41.1386,0.726469767 41.1176465,0.743725581 41.096693,0.759748837 C41.0794372,0.775772093 41.0609488,0.793027907 41.043693,0.809051163 C41.0276698,0.825074419 41.0116465,0.842330233 40.9956233,0.858353488 C40.9808326,0.874376744 40.9660419,0.891632558 40.9512512,0.91012093 C40.9475535,0.913818605 40.9438558,0.917516279 40.9401581,0.922446512 L20.4119023,26.1184 C20.404507,26.1282605 20.3971116,26.1381209 20.3884837,26.1479814 C20.3761581,26.1652372 20.3638326,26.1812605 20.3527395,26.1985163 C20.340414,26.2157721 20.3305535,26.2317953 20.3194605,26.2490512 C20.3083674,26.266307 20.298507,26.2823302 20.2886465,26.299586 C20.278786,26.3168419 20.2701581,26.3340977 20.2602977,26.3513535 C20.2516698,26.3698419 20.2430419,26.3870977 20.234414,26.405586 C20.225786,26.425307 20.2171581,26.4425628 20.2097628,26.4622837 C20.2011349,26.4832372 20.1937395,26.5029581 20.1863442,26.5239116 C20.1789488,26.5448651 20.1715535,26.5670512 20.1653907,26.5880047 C20.1629256,26.5954 20.161693,26.6015628 20.1592279,26.6077256 C20.1592279,26.6089581 20.1592279,26.6101907 20.1592279,26.6114233 C20.1542977,26.6299116 20.1493674,26.6459349 20.1444372,26.6644233 C20.1370419,26.6940047 20.1308791,26.7260512 20.1259488,26.7568651 C20.119786,26.8000047 20.1148558,26.8443767 20.1111581,26.8862837 C20.1074605,26.9392837 20.1210186,26.9873535 20.1234837,27.0391209 C20.1259488,27.0797953 20.1271814,27.1167721 20.1321116,27.156214 C20.1370419,27.1833302 20.1333442,27.2104465 20.139507,27.2363302 C20.1481349,27.2770047 20.1604605,27.3164465 20.1740186,27.3546558 C20.1838791,27.3805395 20.1937395,27.4064233 20.2060651,27.4310744 C20.2159256,27.4520279 20.225786,27.4717488 20.2368791,27.4914698 C20.245507,27.5087256 20.2566,27.5235163 20.2664605,27.5395395 L20.2664605,27.5407721 C20.267693,27.5420047 20.267693,27.5420047 20.2689256,27.5432372 C20.278786,27.5580279 20.2886465,27.571586 20.2997395,27.5863767 C20.3096,27.5999349 20.320693,27.613493 20.331786,27.6258186 C20.3416465,27.6369116 20.3527395,27.6492372 20.3638326,27.6603302 C20.3749256,27.6701907 20.3860186,27.6812837 20.3971116,27.6911442 C20.4094372,27.7010047 20.4205302,27.7108651 20.4316233,27.7182605 C20.4439488,27.7268884 20.4562744,27.7367488 20.4686,27.7441442 C20.4809256,27.7527721 20.4932512,27.7601674 20.5068093,27.7675628 C20.5191349,27.7749581 20.532693,27.7811209 20.5462512,27.7872837 C20.5598093,27.7934465 20.5721349,27.7996093 20.585693,27.8045395 L31.3422279,31.9607256 C31.2103442,31.9089581 31.1018791,31.8165163 31.0229953,31.6957256 L31.0229953,31.6957256 C30.951507,31.5872605 30.9120651,31.4541442 30.8886465,31.3124 C30.8837163,31.2741907 30.8824837,31.2347488 30.8800186,31.195307 C30.8713907,31.0560279 30.8750884,30.9118186 30.9145302,30.7676093 L30.9157628,30.7626791 C30.9650651,30.5938186 31.046414,30.4261907 31.1696698,30.274586 L51.696693,5.0774 C51.7965302,4.95537674 51.9074605,4.86909767 52.0196233,4.80623721 C52.1465767,4.73351628 52.2759953,4.6916093 52.4017163,4.68914419 C52.4929256,4.68791163 52.5816698,4.70393488 52.6630186,4.7359814 L52.6630186,4.73474884 L52.6630186,4.7359814 Z" id="Fill-3" fill="#141634"></path>
                        <polygon id="Fill-5" fill="#323668" points="35.6635767 47.2472814 46.4201116 51.4034674 10.9236698 52.0678163 0.167134884 47.9128628"></polygon>
                    </g>
                    <g transform="translate(37.000000, 76.000000)">
                        <mask id="mask-7" fill="white">
                            <use xlink:href="#path-6"></use>
                        </mask>
                        <g id="Clip-8"></g>
                        <path d="M0.265969,0.3669 L10.825639,3.7379 C10.753039,3.7159 10.674389,3.7029 10.590899,3.7049 L0.031229,0.3329 C0.114719,0.3319 0.193369,0.3439 0.265969,0.3669" id="Fill-7" fill="#7F8082" mask="url(#mask-7)"></path>
                    </g>
                    <g transform="translate(36.000000, 94.000000)">
                        <mask id="mask-9" fill="white">
                            <use xlink:href="#path-8"></use>
                        </mask>
                        <g id="Clip-10"></g>
                        <path d="M1.36704,0.1842 L11.83944,3.5562 C11.67384,3.5582 11.51904,3.5352 11.37624,3.4892 L0.90384,0.1182 C1.04664,0.1632 1.20144,0.1872 1.36704,0.1842" id="Fill-9" fill="#7F8082" mask="url(#mask-9)"></path>
                    </g>
                    <g>
                        <path d="M76.4776579,6.52824742 C76.4826053,6.45154639 76.4628158,6.38350515 76.4615789,6.30927835 C76.4578684,6.18680412 76.4553947,6.0643299 76.4331316,5.95051546 C76.4281842,5.92453608 76.4331316,5.89237113 76.4269474,5.86639175 C76.4096316,5.79092784 76.3886053,5.72041237 76.3626316,5.64989691 C76.3453158,5.59917526 76.3242895,5.54969072 76.3020263,5.50268041 C76.2995526,5.49649485 76.2958421,5.49154639 76.2933684,5.48536082 L76.2896579,5.47670103 C76.2735789,5.44701031 76.2587368,5.41608247 76.2426579,5.38639175 C76.2228684,5.35298969 76.2030789,5.31958763 76.1820526,5.28865979 C76.1635,5.26020619 76.1424737,5.23175258 76.1214474,5.20453608 C76.1016579,5.17731959 76.0806316,5.15257732 76.0583684,5.12783505 C76.0385789,5.1043299 76.0163158,5.08082474 75.9940526,5.05979381 C75.9903421,5.05731959 75.9878684,5.05360825 75.9841579,5.05113402 L75.9804474,5.04742268 C75.9631316,5.03010309 75.9458158,5.01278351 75.9285,4.99917526 C75.9062368,4.97938144 75.8827368,4.95958763 75.8592368,4.94226804 C75.8357368,4.92494845 75.8122368,4.90762887 75.7875,4.89278351 C75.7627632,4.87546392 75.7380263,4.86061856 75.7120526,4.84701031 C75.6848421,4.83092784 75.6576316,4.81731959 75.6304211,4.80371134 C75.6056842,4.79381443 75.5809474,4.78268041 75.5549737,4.77278351 L64.7610526,0.601237113 C64.9206053,0.663092784 65.0628421,0.755876289 65.1877632,0.875876289 L65.1902368,0.879587629 C65.3126842,0.997113402 65.4153421,1.14185567 65.4957368,1.30639175 C65.4969737,1.30886598 65.4982105,1.31134021 65.4994474,1.31505155 C65.5674737,1.45484536 65.6082895,1.61443299 65.6404474,1.78020619 C65.6614737,1.89278351 65.6639474,2.01525773 65.6676579,2.13773196 C65.6701316,2.26020619 65.6849737,2.37896907 65.6688947,2.50762887 L58.9008947,54.9364948 C58.8934737,54.9884536 58.8885263,55.0404124 58.8848158,55.091134 C58.8798684,55.1678351 58.8996579,55.2346392 58.9021316,55.308866 C58.9046053,55.4338144 58.9058421,55.5575258 58.9293421,55.6725773 C58.9330526,55.6997938 58.9293421,55.7319588 58.9355263,55.7591753 C58.9528421,55.8334021 58.9738684,55.9063918 58.9998421,55.9756701 C59.0171579,56.0263918 59.0381842,56.0746392 59.0592105,56.1216495 C59.0616842,56.1265979 59.0653947,56.1315464 59.0678684,56.1364948 L59.0715789,56.1426804 C59.0864211,56.1748454 59.1025,56.2057732 59.1185789,56.236701 C59.1371316,56.268866 59.1581579,56.3010309 59.1779474,56.3331959 C59.1977368,56.3616495 59.2175263,56.3901031 59.2385526,56.4173196 C59.2583421,56.443299 59.2793684,56.4680412 59.3003947,56.4927835 C59.3214211,56.5150515 59.3424474,56.5385567 59.3647105,56.5595876 C59.3684211,56.563299 59.3708947,56.5657732 59.3746053,56.5694845 C59.3758421,56.5694845 59.3770789,56.5707216 59.3770789,56.5719588 C59.3943947,56.5892784 59.4117105,56.6053608 59.4290263,56.6202062 C59.4512895,56.64 59.4747895,56.6573196 59.4970526,56.6758763 C59.5217895,56.6931959 59.5452895,56.7092784 59.5687895,56.7253608 C59.5935263,56.7414433 59.6182632,56.7575258 59.6442368,56.771134 C59.6702105,56.7859794 59.6974211,56.7995876 59.7246316,56.8119588 C59.7493684,56.8230928 59.7741053,56.8342268 59.7988421,56.8441237 L59.8000789,56.8441237 L70.5927632,61.0156701 C70.4356842,60.9538144 70.2934474,60.862268 70.171,60.7435052 C70.1697632,60.742268 70.1685263,60.7410309 70.1685263,60.7397938 C70.0473158,60.6235052 69.9446579,60.4787629 69.8655,60.3154639 C69.8642632,60.3129897 69.8617895,60.3105155 69.8605526,60.3080412 C69.795,60.1682474 69.7541842,60.0074227 69.7220263,59.8441237 C69.701,59.7290722 69.6985263,59.6053608 69.6948158,59.4816495 C69.6923421,59.3579381 69.6762632,59.2379381 69.6935789,59.1080412 L76.4628158,6.67793814 C76.469,6.62845361 76.4739474,6.57773196 76.4776579,6.52824742" id="Fill-11" fill="#141634"></path>
                        <path d="M54.1256947,91.9169072 C54.0898263,92.1927835 54.0094316,92.4575258 53.8956421,92.7 C53.8944053,92.7012371 53.8944053,92.7024742 53.8944053,92.7049485 C53.7793789,92.9461856 53.6309579,93.1651546 53.4590368,93.3507216 C53.4590368,93.3507216 53.4578,93.3519588 53.4578,93.3519588 C53.2970105,93.5251546 53.1114842,93.66 52.9160632,93.7651546 C52.8826684,93.7849485 52.8468,93.7985567 52.8121684,93.8134021 C52.6179842,93.9012371 52.4163789,93.9643299 52.2085895,93.9692784 L37.2774316,94.248866 L48.0701158,98.4204124 L63.0025105,98.1395876 C63.2103,98.1358763 63.4106684,98.0740206 63.6060895,97.9837113 C63.6407211,97.968866 63.6753526,97.9552577 63.7112211,97.936701 C63.7384316,97.9218557 63.7681158,97.9156701 63.7953263,97.8983505 C63.8472737,97.8674227 63.8992211,97.8315464 63.9486947,97.794433 C63.9895105,97.7647423 64.0290895,97.7325773 64.0686684,97.6991753 C64.1033,97.6694845 64.1366947,97.6385567 64.1700895,97.6076289 C64.1973,97.5804124 64.2245105,97.5531959 64.2517211,97.5235052 C64.2517211,97.522268 64.2529579,97.522268 64.2529579,97.5210309 C64.2541947,97.5197938 64.2566684,97.5185567 64.2579053,97.5160825 C64.2838789,97.4876289 64.3110895,97.4579381 64.3358263,97.4270103 C64.3605632,97.3985567 64.3840632,97.3676289 64.4075632,97.3379381 C64.4310632,97.3070103 64.4520895,97.2773196 64.4743526,97.2463918 C64.4953789,97.2154639 64.5151684,97.1845361 64.5361947,97.1523711 C64.5559842,97.1214433 64.5745368,97.0905155 64.5930895,97.0571134 C64.6116421,97.0249485 64.6289579,96.9927835 64.6462737,96.9581443 C64.6611158,96.9309278 64.6747211,96.9024742 64.6883263,96.8752577 L64.6895632,96.8715464 C64.6920368,96.8653608 64.6945105,96.8604124 64.6969842,96.8554639 C64.7143,96.8195876 64.7291421,96.7837113 64.7439842,96.7453608 C64.7613,96.7070103 64.7749053,96.6686598 64.7897474,96.6290722 C64.8045895,96.5857732 64.8194316,96.5437113 64.8318,96.5004124 C64.8454053,96.4521649 64.8590105,96.4039175 64.8713789,96.3556701 C64.8837474,96.2975258 64.8961158,96.2381443 64.9060105,96.1787629 C64.9109579,96.1490722 64.9159053,96.1181443 64.9196158,96.0872165 L54.1256947,91.9169072 Z" id="Fill-13" fill="#323668"></path>
                        <path d="M78.6094789,62.5874227 C78.6057684,62.4661856 78.6045316,62.3474227 78.5822684,62.2348454 C78.5773211,62.2076289 78.5822684,62.176701 78.5760842,62.1507216 C78.5587684,62.077732 78.5377421,62.0059794 78.5130053,61.9379381 C78.4944526,61.8872165 78.4746632,61.8389691 78.4524,61.7907216 C78.4499263,61.7857732 78.4462158,61.7795876 78.4425053,61.7721649 L78.4375579,61.7635052 C78.4239526,61.7350515 78.4091105,61.7041237 78.3930316,61.6769072 C78.3744789,61.6435052 78.3546895,61.6113402 78.3336632,61.5804124 C78.3151105,61.5507216 78.2940842,61.5235052 78.2730579,61.4950515 C78.2532684,61.4703093 78.2322421,61.4443299 78.2112158,61.4208247 C78.1901895,61.3960825 78.1691632,61.3750515 78.1469,61.3527835 C78.1431895,61.3478351 78.1394789,61.3453608 78.1357684,61.3404124 C78.1345316,61.3404124 78.1332947,61.3391753 78.1320579,61.3379381 C78.1159789,61.3230928 78.0986632,61.3070103 78.0813474,61.2909278 C78.0590842,61.2723711 78.0368211,61.2538144 78.0133211,61.2352577 C77.9898211,61.2191753 77.9663211,61.2018557 77.9415842,61.1857732 C77.9168474,61.1696907 77.8921105,61.1548454 77.8661368,61.14 C77.8401632,61.1251546 77.8129526,61.1127835 77.7857421,61.0991753 C77.7610053,61.0880412 77.7362684,61.0769072 77.7102947,61.0670103 L66.9163737,56.8954639 C67.0734526,56.9560825 67.2156895,57.048866 67.3381368,57.1663918 C67.3393737,57.1676289 67.3406105,57.168866 67.3418474,57.1701031 C67.4630579,57.2876289 67.5644789,57.4298969 67.6436368,57.5919588 L67.6485842,57.6018557 C67.7153737,57.7391753 67.7574263,57.8987629 67.7883474,58.063299 C67.8106105,58.1758763 67.8130842,58.2958763 67.8155579,58.4171134 C67.8192684,58.5408247 67.8341105,58.6571134 67.8167947,58.7870103 L65.7784789,74.5725773 L76.5736368,78.7453608 L78.6107158,62.9585567 C78.6181368,62.9078351 78.6230842,62.8571134 78.6255579,62.8076289 C78.6317421,62.7296907 78.6107158,62.6628866 78.6094789,62.5874227" id="Fill-15" fill="#323668"></path>
                        <path d="M65.7790974,74.5730722 C65.7432289,74.8501856 65.6640711,75.1136907 65.5502816,75.3536907 C65.5490447,75.3561649 65.5478079,75.3574021 65.5478079,75.3586392 C65.4340184,75.5986392 65.2868342,75.815134 65.11615,75.9982268 C65.1149132,75.9994639 65.1136763,76.000701 65.1124395,76.000701 C64.9541237,76.1714227 64.7710711,76.3050309 64.5781237,76.4077113 C64.5434921,76.4275052 64.5088605,76.4411134 64.4729921,76.4559588 C64.2812816,76.5437938 64.08215,76.6056495 63.8768342,76.6093608 L56.9245447,76.7404948 C56.7922026,76.7429691 56.6660447,76.7875052 56.5485447,76.8543093 C56.53865,76.8592577 56.5287553,76.8580206 56.5188605,76.8629691 C56.4928868,76.8790515 56.4669132,76.8963711 56.4409395,76.9149278 C56.42115,76.9297732 56.4001237,76.9458557 56.3815711,76.9631753 C56.3642553,76.9780206 56.3469395,76.992866 56.3308605,77.0101856 C56.3160184,77.0237938 56.2999395,77.0386392 56.2863342,77.0547216 C56.2727289,77.069567 56.2591237,77.0844124 56.2467553,77.0992577 C56.2343868,77.1153402 56.2220184,77.1289485 56.2108868,77.1450309 C56.1985184,77.1598763 56.1886237,77.1759588 56.1774921,77.1908041 C56.1663605,77.2068866 56.1564658,77.2229691 56.1465711,77.2378144 C56.1366763,77.2538969 56.1267816,77.2699794 56.1168868,77.2860619 L56.0896763,77.3367835 C56.0822553,77.3516289 56.0748342,77.3677113 56.0674132,77.3825567 C56.0661763,77.3825567 56.0661763,77.3837938 56.0661763,77.3837938 L56.0649395,77.3887423 C56.0562816,77.407299 56.0476237,77.4258557 56.0402026,77.4444124 C56.0315447,77.4642062 56.0241237,77.4852371 56.0167026,77.5050309 C56.0092816,77.527299 56.0018605,77.5483299 55.9956763,77.5705979 C55.9882553,77.5941031 55.9820711,77.6200825 55.9758868,77.6448247 C55.9684658,77.6745155 55.9622816,77.7042062 55.9573342,77.735134 C55.9548605,77.7499794 55.9523868,77.7660619 55.95115,77.7821443 L54.1255711,91.9174021 L64.9194921,96.0877113 L66.7438342,81.9536907 C66.7623868,81.8138969 66.8032026,81.6790515 66.8600974,81.5565773 L66.8613342,81.5553402 C66.9182289,81.4316289 66.9936763,81.3190515 67.0802553,81.2250309 L67.0814921,81.2250309 C67.1581763,81.1421443 67.2484658,81.0778144 67.3424658,81.0258557 C67.4599658,80.9590515 67.5861237,80.9132784 67.7184658,80.9108041 L74.6707553,80.7809072 C74.8760711,80.7771959 75.0752026,80.7153402 75.2669132,80.6275052 C75.3027816,80.6114227 75.3374132,80.5978144 75.3720447,80.5792577 C75.4004921,80.5644124 75.4301763,80.5569897 75.4586237,80.5409072 C75.5105711,80.5087423 75.5612816,80.4753402 75.6119921,80.4369897 C75.6515711,80.407299 75.69115,80.375134 75.7294921,80.3429691 C75.7641237,80.3132784 75.7975184,80.2823505 75.8296763,80.2514227 C75.85565,80.2254433 75.8816237,80.1994639 75.9063605,80.1722474 C75.9075974,80.1710103 75.9088342,80.1697732 75.9088342,80.1697732 C75.9125447,80.1660619 75.9150184,80.1648247 75.9174921,80.1623505 C75.9447026,80.1326598 75.9706763,80.1042062 75.9954132,80.0732784 C76.0189132,80.0448247 76.04365,80.0138969 76.0659132,79.9842062 C76.0881763,79.9557526 76.1104395,79.9248247 76.1314658,79.8938969 C76.1524921,79.8629691 76.1722816,79.8332784 76.1920711,79.8023505 C76.2118605,79.7701856 76.23165,79.7392577 76.2489658,79.7070928 C76.2675184,79.6749278 76.2860711,79.6427629 76.30215,79.6093608 C76.3157553,79.5833814 76.3281237,79.5561649 76.3417289,79.5301856 C76.3429658,79.5289485 76.3429658,79.5264742 76.3442026,79.5252371 C76.3466763,79.5190515 76.34915,79.512866 76.3528605,79.5066804 C76.3689395,79.4720412 76.3850184,79.4361649 76.3986237,79.3990515 C76.4147026,79.360701 76.4295447,79.3223505 76.4443868,79.2827629 C76.4592289,79.240701 76.4728342,79.1974021 76.4852026,79.1553402 C76.5000447,79.1083299 76.5124132,79.0600825 76.5247816,79.0105979 C76.5383868,78.9536907 76.5495184,78.8943093 76.5594132,78.8349278 C76.5643605,78.8052371 76.5693079,78.7743093 76.5730184,78.7446186 L65.7790974,74.5730722 Z" id="Fill-17" fill="#141634"></path>
                        <path d="M64.2741079,0.517300665 C65.1943184,0.499298969 65.8115026,1.39991753 65.6692658,2.50713402 L58.9000289,54.936 C58.7553184,56.0605361 59.3749763,56.9438351 60.2828184,56.9277526 L66.4336342,56.812701 C67.3402395,56.7953814 67.9611342,57.6799175 67.8176605,58.787134 L65.7793447,74.572701 C65.6371079,75.6811546 64.7849237,76.5929072 63.8770816,76.6102268 L56.9247921,76.7401237 C56.4510816,76.7487835 56.0231342,77.2213608 55.9513974,77.7817732 L54.1258184,91.9170309 C53.9823447,93.0230103 53.1289237,93.9508454 52.2087132,93.9694021 L37.2775553,94.2494089 C36.37095,94.2650722 35.7525289,93.3656907 35.8947658,92.2572371 L37.7203447,78.1232165 C37.7920816,77.561567 37.4841079,77.1038351 37.0240026,77.1124948 L1.40418684,77.7805361 C0.497581579,77.7978557 -0.122076316,76.9133196 0.0201605263,75.804866 L2.37758158,57.5487835 C2.43695,57.0836289 2.62866053,56.616 2.92426579,56.2584742 L47.1067395,1.55950515 C47.4802658,1.10424742 47.9750026,0.822185567 48.4623184,0.813525773 L64.2741079,0.517300665 Z M43.0263974,30.2268687 C42.7901605,30.2320825 42.5353711,30.3520825 42.3201605,30.6168247 L21.7205553,55.9058969 C21.1577921,56.604866 21.4162921,57.6564124 22.1509763,57.6430632 L39.5409763,57.3162062 C40.0146868,57.3063093 40.4710816,56.8188866 40.5452921,56.2411546 L43.7685026,31.2774433 C43.8526079,30.6279588 43.4728974,30.2184742 43.0263974,30.2268687 Z" id="形状" fill="url(#linearGradient-10)"></path>
                        <path d="M125.596863,92.2829691 L114.793047,70.5159588 C114.597626,70.1237938 114.351495,69.7588454 114.079389,69.4136907 C113.994047,69.3035876 113.896337,69.2070928 113.803574,69.1019381 C113.600732,68.8730722 113.387995,68.6541031 113.156705,68.4524536 C113.037968,68.3485361 112.919232,68.2520412 112.795547,68.1567835 C112.553126,67.9699794 112.300811,67.801732 112.037363,67.6446186 C111.914916,67.5703918 111.799889,67.4936907 111.673732,67.4281237 C111.312574,67.2376082 110.939047,67.0743093 110.555626,66.9456495 C110.527179,66.9357526 110.501205,66.918433 110.472758,66.9085361 C110.469047,66.907299 110.465337,66.907299 110.460389,66.9060619 C110.0881,66.7860619 109.709626,66.6957526 109.328679,66.6388454 C109.255705,66.6277113 109.182732,66.6338969 109.108521,66.6252371 C108.801784,66.5881237 108.495047,66.5609072 108.189547,66.569567 C108.180889,66.569567 108.172232,66.5683299 108.163574,66.5683299 C107.8086,66.580701 107.457337,66.6227629 107.114732,66.6982268 L100.909495,68.0800825 C100.559468,68.1567835 100.242837,68.2730722 99.9447579,68.4091546 C99.8532316,68.4512165 99.7703632,68.500701 99.6825474,68.5477113 C99.4821789,68.6565773 99.2941789,68.7753402 99.1197842,68.9089485 C99.0393895,68.9708041 98.9602316,69.0326598 98.8860211,69.0994639 C98.7128632,69.2553402 98.5582579,69.4248247 98.4184947,69.6066804 C98.3764421,69.6611134 98.3257316,69.7093608 98.2873895,69.766268 C98.2750211,69.7835876 98.2589421,69.7971959 98.2478105,69.8145155 C98.0882579,70.0545155 97.9571526,70.3118351 97.8569684,70.584 L94.9306,78.4941031 C95.0382053,78.2033814 95.1853895,77.9312165 95.3610211,77.6763711 C95.3993632,77.6194639 95.4500737,77.5699794 95.4933632,77.5155464 C95.6318895,77.3349278 95.7864947,77.1642062 95.9608895,77.009567 C96.0338632,76.944 96.1142579,76.8821443 96.1934158,76.8202887 C96.3678105,76.6866804 96.5570474,76.5666804 96.7574158,76.4590515 C96.8439947,76.4120412 96.9268632,76.3613196 97.0183895,76.3204948 C97.3177053,76.1831753 97.6343368,76.0668866 97.9831263,75.9889485 L104.188363,74.609567 C104.540863,74.5303918 104.900784,74.489567 105.263179,74.4796701 C105.564968,74.4722474 105.867995,74.4994639 106.172258,74.5341031 C106.248942,74.5427629 106.325626,74.5365773 106.403547,74.5489485 C106.784495,74.6058557 107.162968,74.6961649 107.534021,74.8161649 C107.566179,74.827299 107.5971,74.8433814 107.629258,74.8545155 C108.012679,74.9844124 108.384968,75.1477113 108.747363,75.3382268 C108.872284,75.4037938 108.991021,75.481732 109.112232,75.5547216 C109.374442,75.7105979 109.627995,75.8800825 109.870416,76.0681237 C109.992863,76.1621443 110.112837,76.2598763 110.2291,76.3625567 C110.461626,76.5642062 110.6756,76.7844124 110.878442,77.0120412 C110.969968,77.1159588 111.067679,77.2136907 111.153021,77.3225567 C111.425126,77.6689485 111.671258,78.0338969 111.866679,78.4260619 L122.670495,100.193072 C123.307468,101.474722 123.380442,102.755134 122.985889,103.821526 L125.911021,95.9114227 C126.305574,94.8437938 126.233837,93.5633814 125.596863,92.2829691" id="Fill-21" fill="#141634"></path>
                        <path d="M138.723839,103.286474 C138.650866,103.426268 138.564287,103.557402 138.486366,103.693485 C138.324339,103.978021 138.159839,104.260082 137.974313,104.53101 C137.895155,104.646062 137.807339,104.756165 137.723234,104.869979 C137.527813,105.133485 137.321261,105.389567 137.101103,105.63699 C136.999682,105.753278 136.897024,105.86833 136.791892,105.97967 C136.543287,106.239464 136.279839,106.488124 136.005261,106.726887 C135.921155,106.801113 135.843234,106.879052 135.756655,106.952041 C135.39055,107.253897 135.004655,107.538433 134.596497,107.801938 C134.500024,107.865031 134.394892,107.920701 134.297182,107.98132 C133.974366,108.179258 133.640418,108.366062 133.292866,108.540495 C133.144445,108.615959 132.992313,108.685237 132.838945,108.755753 C132.507471,108.907918 132.163629,109.046474 131.812366,109.176371 C131.661471,109.232041 131.51305,109.291423 131.359682,109.342144 C130.853813,109.509155 130.334339,109.66132 129.790129,109.782557 L121.263339,111.679052 C120.714182,111.801526 120.160076,111.894309 119.601024,111.962351 C119.414261,111.984619 119.223787,111.98833 119.037024,112.005649 C118.663497,112.039052 118.291208,112.074928 117.916445,112.086062 C117.545392,112.097196 117.173103,112.081113 116.800813,112.071216 C116.580655,112.065031 116.361734,112.071216 116.140339,112.057608 C115.702497,112.029155 115.262182,111.974722 114.823103,111.919052 C114.669734,111.899258 114.515129,111.891835 114.360524,111.86833 C113.766839,111.779258 113.175629,111.664206 112.586892,111.525649 C112.453313,111.494722 112.320971,111.450186 112.187392,111.415546 C111.733471,111.300495 111.280787,111.180495 110.831813,111.035753 C110.741524,111.006062 110.654945,110.968948 110.564655,110.939258 C110.005603,110.751216 109.451497,110.542144 108.904813,110.312041 C108.698261,110.224206 108.494182,110.127711 108.290103,110.034928 C107.859682,109.839464 107.435445,109.632866 107.017392,109.41266 C106.803418,109.300082 106.590682,109.186268 106.380418,109.066268 C105.954945,108.826268 105.540603,108.570186 105.131208,108.305443 C104.956813,108.191629 104.778708,108.084 104.606787,107.966474 C104.037839,107.576784 103.481261,107.167299 102.949418,106.729361 C102.907366,106.695959 102.869024,106.656371 102.826971,106.620495 C102.339655,106.215959 101.872129,105.789155 101.421918,105.346268 C101.264839,105.192866 101.117655,105.030804 100.965524,104.871216 C100.636524,104.529773 100.318655,104.17967 100.014392,103.818433 C99.85855,103.632866 99.7064184,103.447299 99.5567605,103.258021 C99.2623921,102.883175 98.9853395,102.498433 98.7181816,102.106268 C98.5982079,101.928124 98.47205,101.756165 98.3570237,101.574309 C97.9909184,100.999052 97.6470763,100.411423 97.34405,99.8015258 L85.4357342,75.8089485 C83.4580237,71.8254433 83.2316816,67.8419381 84.4598658,64.5215258 L81.5334974,72.4316289 C80.3053132,75.7520412 80.5316553,79.7355464 82.5093658,83.7190515 L94.4189184,107.711629 C94.7207079,108.320289 95.0657868,108.909155 95.4306553,109.485649 C95.5456816,109.665031 95.6718395,109.839464 95.7918132,110.015134 C96.0589711,110.408536 96.3360237,110.793278 96.6303921,111.168124 C96.78005,111.357402 96.9321816,111.544206 97.0880237,111.728536 C97.3922868,112.089773 97.7101553,112.438639 98.0379184,112.78132 C98.1912868,112.940907 98.3384711,113.102969 98.4967868,113.258845 C98.9457605,113.699258 99.4108132,114.123588 99.8956553,114.528124 C99.9401816,114.564 99.9797605,114.603588 100.02305,114.640701 C100.556129,115.077402 101.110234,115.485649 101.679182,115.876577 C101.852339,115.994103 102.031682,116.101732 102.20855,116.216784 C102.616708,116.481526 103.029813,116.736371 103.452813,116.975134 C103.664313,117.095134 103.878287,117.210186 104.092261,117.324 C104.509076,117.542969 104.932076,117.74833 105.360024,117.943794 C105.566576,118.037814 105.770655,118.135546 105.980918,118.223381 C106.523892,118.452247 107.074287,118.658845 107.629629,118.845649 C107.708787,118.872866 107.785471,118.908742 107.864629,118.933485 C107.879471,118.938433 107.893076,118.940907 107.906682,118.945856 C108.343287,119.085649 108.783603,119.201938 109.225155,119.315753 C109.372339,119.352866 109.515813,119.402351 109.661761,119.43699 C110.250497,119.575546 110.840471,119.690598 111.432918,119.778433 C111.598655,119.804412 111.764392,119.810598 111.928892,119.832866 C112.358076,119.886062 112.786024,119.940495 113.213971,119.966474 C113.439076,119.98132 113.664182,119.973897 113.889287,119.98132 C114.256629,119.991216 114.623971,120.007299 114.988839,119.996165 C115.014813,119.996165 115.042024,119.998639 115.067997,119.997402 C115.419261,119.986268 115.765576,119.947918 116.114366,119.915753 C116.301129,119.89967 116.489129,119.894722 116.674655,119.872454 C117.233708,119.804412 117.78905,119.710392 118.336971,119.590392 L126.864997,117.693897 C127.409208,117.57266 127.927445,117.420495 128.433313,117.252247 C128.587918,117.201526 128.735103,117.142144 128.885997,117.086474 C129.238497,116.957814 129.581103,116.818021 129.912576,116.665856 C130.065945,116.596577 130.218076,116.526062 130.367734,116.451835 C130.71405,116.277402 131.047997,116.089361 131.370813,115.890186 C131.469761,115.830804 131.573655,115.776371 131.670129,115.713278 C132.078287,115.447299 132.464182,115.164 132.830287,114.860907 C132.916866,114.790392 132.994787,114.711216 133.080129,114.638227 C133.353471,114.39699 133.616918,114.149567 133.865524,113.889773 C133.971892,113.777196 134.073313,113.663381 134.175971,113.54833 C134.394892,113.300907 134.601445,113.044825 134.796866,112.78132 C134.880971,112.667505 134.96755,112.556165 135.047945,112.439876 C135.08505,112.385443 135.129576,112.335959 135.165445,112.281526 C135.310155,112.063794 135.430129,111.831216 135.559997,111.604825 C135.637918,111.467505 135.725734,111.337608 135.797471,111.197814 C136.017629,110.772247 136.215524,110.334309 136.382497,109.884 L139.308866,101.97266 C139.141892,102.425443 138.943997,102.860907 138.723839,103.286474" id="Fill-23" fill="url(#linearGradient-11)"></path>
                        <path d="M125.596863,92.2829691 L114.793047,70.5159588 C113.427574,67.7670928 109.990389,66.0598763 107.114732,66.6982268 L100.909495,68.0800825 C98.0338368,68.718433 96.8068895,71.4635876 98.1711263,74.2124536 L108.976179,95.9782268 C110.340416,98.7283299 113.7776,100.435546 116.653258,99.7959588 L122.859732,98.4165773 C125.734153,97.7757526 126.962337,95.0318351 125.596863,92.2829691 L125.596863,92.2829691 Z M102.505021,54.8157526 C111.467179,52.8227629 122.178232,58.1411134 126.423074,66.6932784 L138.332626,90.6858557 C142.578705,99.2380206 138.751916,107.790186 129.790995,109.783175 L121.262968,111.67967 C112.300811,113.67266 101.589758,108.353072 97.3449158,99.8009072 L85.4353632,75.809567 C81.1905211,67.2574021 85.0160737,58.704 93.9782316,56.7122474 L102.505021,54.8157526 Z" id="Fill-25" fill="url(#linearGradient-12)"></path>
                    </g>
                    <g transform="translate(158.000000, 43.000000)">
                        <mask id="mask-14" fill="white">
                            <use xlink:href="#path-13"></use>
                        </mask>
                        <g id="Clip-28"></g>
                        <path d="M3.2827,0.240685714 L0.1067,8.90125714 C0.1157,8.86782857 0.1257,8.83568571 0.1377,8.80354286 L3.3137,0.142971429 C3.3017,0.175114286 3.2917,0.208542857 3.2827,0.240685714" id="Fill-27" fill="#7F8082" mask="url(#mask-14)"></path>
                    </g>
                    <path d="M207.709337,84.3522868 C207.585953,84.4437577 207.436469,84.5142151 207.258512,84.5488257 L201.766758,85.6736712 L198,94 L203.491755,92.8763906 C203.664966,92.8393078 203.81445,92.7737948 203.936647,92.684796 C203.93902,92.68356 203.940206,92.6798517 203.942579,92.6786156 C204.070708,92.5834363 204.169178,92.4635352 204.232056,92.3250927 L208,84 C207.935935,84.1372064 207.837466,84.2571075 207.709337,84.3522868" id="Fill-29" fill="#1F224D"></path>
                    <g transform="translate(197.000000, 85.000000)">
                        <g>
                            <mask id="mask-16" fill="white">
                                <use xlink:href="#path-15"></use>
                            </mask>
                            <g id="Clip-32"></g>
                            <path d="M3.6777,0.865 L0.5027,9.28375 C0.4257,9.30375 0.3587,9.3375 0.3047,9.385 L3.4807,0.96625 C3.5347,0.91875 3.6007,0.88375 3.6777,0.865" id="Fill-31" fill="#898A8C" mask="url(#mask-16)"></path>
                        </g>
                        <g>
                            <mask id="mask-18" fill="white">
                                <use xlink:href="#path-17"></use>
                            </mask>
                            <g id="Clip-34"></g>
                            <path d="M3.4805,0.966375 L0.3045,9.385125 C0.2465,9.436375 0.2025,9.501375 0.1745,9.576375 L3.3505,1.156375 C3.3775,1.082625 3.4225,1.016375 3.4805,0.966375" id="Fill-33" fill="#848587" mask="url(#mask-18)"></path>
                        </g>
                    </g>
                    <path d="M171.268866,61.5166707 C171.192751,61.3669851 171.0671,61.2568857 170.929368,61.1702907 C170.916078,61.1616312 170.910037,61.1443122 170.895539,61.1356527 C170.883457,61.1294673 170.867751,61.1294673 170.854461,61.1220449 C170.76868,61.0787474 170.680483,61.0478206 170.58987,61.0280275 C170.571747,61.0255533 170.554833,61.0144197 170.53671,61.0107085 C170.533086,61.0107085 170.529461,61.0119456 170.525836,61.0107085 C170.423141,60.9958636 170.321654,60.9958636 170.227416,61.0144197 C170.140428,61.0317387 170.060688,61.0651396 169.99303,61.1121483 C169.99303,61.1133854 169.99303,61.1133854 169.99303,61.1133854 C169.92658,61.1603941 169.872212,61.2234848 169.835967,61.3014203 L166,69.6343343 C166.036245,69.5551617 166.090613,69.492071 166.157063,69.4450623 C166.224721,69.3968165 166.304461,69.3646527 166.390242,69.3473337 C166.48448,69.3275405 166.587175,69.3275405 166.68987,69.3436224 C166.710409,69.3460966 166.730948,69.3572302 166.752695,69.3621785 C166.843309,69.3807346 166.932714,69.4104243 167.018494,69.4549589 C167.043866,69.4685667 167.066822,69.4871227 167.092193,69.5032047 C167.229926,69.5885626 167.355576,69.698662 167.431691,69.8495847 L175.162825,85 L179,76.667086 L171.268866,61.5166707 Z" id="Fill-35" fill="#141634"></path>
                    <g transform="translate(175.000000, 76.000000)">
                        <mask id="mask-20" fill="white">
                            <use xlink:href="#path-19"></use>
                        </mask>
                        <g id="Clip-38"></g>
                        <path d="M3.6553,0.553 L0.4793,8.973 C0.5323,8.83175 0.5303,8.6555 0.4543,8.478 L3.6303,0.058 C3.7053,0.23675 3.7083,0.413 3.6553,0.553" id="Fill-37" fill="#7F8082" mask="url(#mask-20)"></path>
                    </g>
                    <g transform="translate(143.000000, 40.000000)">
                        <path d="M62.1055357,57.0234482 C61.9758267,57.1158589 61.817432,57.1848589 61.631599,57.2205911 L49.233166,59.6269661 L45.2720531,67.9266804 L57.6704861,65.5203054 C57.8525776,65.4845732 58.0109722,65.4180375 58.139434,65.3293232 C58.1419284,65.3280911 58.1431756,65.3243946 58.14567,65.3231625 C58.2803678,65.2270554 58.3851327,65.1087696 58.4512344,64.9695375 L62.4111001,56.6710554 C62.3449984,56.8090554 62.2402335,56.9285732 62.1055357,57.0234482" id="Fill-39" fill="#1F224D"></path>
                        <path d="M48.650598,59.6346054 C48.6493508,59.6346054 48.6481036,59.6333732 48.6468564,59.6333732 C48.4298433,59.6001054 48.2190662,59.5212482 48.0207611,59.4202125 C47.9122546,59.3635339 47.8137256,59.2933018 47.7164439,59.2181411 C47.667803,59.1811768 47.6116789,59.1503732 47.5667797,59.1084804 C47.4295875,58.9815696 47.3111033,58.8386411 47.2275408,58.6796946 L42.7039399,50.1261589 C42.630355,49.9881589 42.5056348,49.8797304 42.3634538,49.7959446 C42.3509818,49.7885518 42.3472402,49.7725339 42.3347681,49.7663732 C42.3247905,49.7602125 42.3123185,49.7602125 42.3035881,49.7552839 C42.2075536,49.7072304 42.1077774,49.6714982 42.0042597,49.6530161 C41.9967765,49.6517839 41.9905405,49.6480875 41.9830572,49.6468554 L41.9805628,49.6468554 C41.8795395,49.6320696 41.7785161,49.6320696 41.6824816,49.6505518 L37.7213687,57.9502661 C37.8174033,57.9305518 37.9196738,57.9305518 38.0206972,57.9465696 C38.0281804,57.9478018 38.0356636,57.9514982 38.0431468,57.9539625 C38.1466645,57.9712125 38.2476879,58.0069446 38.3424752,58.0549982 C38.3636776,58.0660875 38.3823857,58.0821054 38.4035881,58.0944268 C38.5432747,58.1794446 38.6704893,58.2878732 38.742827,58.4258732 L43.2676751,66.9794089 C43.3512376,67.1383554 43.4697218,67.2812839 43.606914,67.4081946 C43.6518132,67.4513196 43.7066901,67.4796589 43.7565782,67.5178554 C43.8388935,67.5806946 43.9149728,67.6509268 44.0072657,67.7014446 C44.0234794,67.7100696 44.0434346,67.7113018 44.0608954,67.7199268 C44.2579533,67.8209625 44.4674832,67.8985875 44.6832491,67.9318554 C44.6857435,67.9318554 44.6869907,67.9330875 44.6894851,67.9330875 L44.6907323,67.9330875 C44.886543,67.9638911 45.0836009,67.9638911 45.2719284,67.9256946 L49.2330413,59.6272125 C49.0434666,59.6629446 48.8464087,59.6641768 48.650598,59.6346054" id="Fill-41" fill="#141634"></path>
                        <polygon id="Fill-43" fill="#1F224D" points="4.17525744 42.5578446 0.214144547 50.8563268 13.8522961 12.2274161 17.813409 3.92646964"></polygon>
                        <polygon id="Fill-45" fill="#1F224D" points="41.6819827 49.6510446 37.722117 57.9495268 8.15595139 63.6888482 12.1158171 55.3879018"></polygon>
                        <path d="M11.5262648,55.39665 C11.5175344,55.3954179 11.5100512,55.3904893 11.502568,55.3892571 C11.2917909,55.3547571 11.0860026,55.2808286 10.8951807,55.1822571 C10.7854269,55.1255786 10.6856508,55.0541143 10.5896162,54.9789536 C10.538481,54.9407571 10.4836041,54.9099536 10.4374576,54.8680607 C10.3002654,54.7399179 10.1805341,54.5957571 10.0944771,54.4343464 L4.26256156,43.4079 C4.10915574,43.1158821 4.08545891,42.8214 4.17525744,42.5577214 L0.215391749,50.8562036 C0.12559322,51.1198821 0.148042853,51.4155964 0.302695875,51.7063821 L6.13461145,62.7328286 C6.21942117,62.8942393 6.33915254,63.0384 6.47759194,63.167775 C6.52249121,63.2109 6.57861529,63.2404714 6.62975056,63.2786679 C6.71206588,63.3415071 6.78814519,63.4129714 6.88043812,63.4634893 C6.89789894,63.4721143 6.91785417,63.4733464 6.9340678,63.4819714 C7.12738407,63.5805429 7.33067797,63.6544714 7.54270227,63.6889714 C7.55018548,63.6889714 7.55642149,63.6939 7.5639047,63.6951321 L7.5651519,63.6951321 C7.76345699,63.7259357 7.96425648,63.7259357 8.15507835,63.6877393 L12.1161912,55.388025 C11.9241222,55.4249893 11.7245699,55.4262214 11.5262648,55.39665" id="Fill-47" fill="#141634"></path>
                        <path d="M35.7078862,36.89775 L27.7270419,21.8076964 C27.5212536,21.4183393 27.0248673,21.23475 26.6519539,21.3074464 C26.4573905,21.3456429 26.2965014,21.4528393 26.2291525,21.6388929 L19.7823665,39.5296071 C19.5990278,40.0236964 20.2750112,40.5991071 20.8873873,40.4795893 L35.3262424,37.6776964 C35.719111,37.6013036 35.8974608,37.2563036 35.7078862,36.89775 L35.7078862,36.89775 Z M57.6561433,33.34425 C58.4094531,33.197625 59.3124272,33.6325714 59.6653854,34.301625 L64.7078222,43.8347143 C65.0670163,44.513625 64.7427438,45.1752857 63.989434,45.3219107 L58.2161369,46.4419286 C57.8232683,46.5183214 57.6561433,46.8608571 57.8357403,47.1996964 L62.3543524,55.7446071 C62.7073105,56.4136607 62.3842853,57.0753214 61.6309754,57.2207143 L49.2325424,59.6270893 C48.4792325,59.7724821 47.5812472,59.3498571 47.2270419,58.6795714 L42.703441,50.1260357 C42.5238439,49.7871964 42.0636265,49.5765 41.6819827,49.6516607 L12.1158171,55.3885179 C11.3525296,55.5376071 10.4532971,55.1125179 10.094103,54.4336071 L4.2634346,43.4071607 C4.11002878,43.116375 4.08633195,42.8218929 4.17488327,42.5582143 L17.8130349,3.92683929 C17.9265302,3.59539286 18.2258587,3.36621429 18.629952,3.28858929 L31.7592453,0.739285714 C32.5125552,0.593892857 33.4117877,1.01775 33.7647458,1.68803571 L50.5321266,33.3898393 C50.8850847,34.0588929 51.7843172,34.4839821 52.5476047,34.336125 L57.6561433,33.34425 Z" id="Fill-49" fill="url(#linearGradient-21)"></path>
                    </g>
                </g>
            </g>
        </g>
    </g>
</svg>